<?xml version="1.0" ?>
<svg xml:space="preserve" width="842" xmlns:xlink="http://www.w3.org/1999/xlink" height="595" viewBox="0 0 842 595" xmlns="http://www.w3.org/2000/svg" color-interpolation-filters="sRGB" id="root">
<![CDATA[ Converted with TEXTCAFE (tm) http://www.texterity.com ]]>
  <title>BEISPIEL.CDR from CorelDRAW! -- Page 1</title>
  <defs>
    <style type="text/css">
<![CDATA[
text{unicode-bidi:bidi-override}
clipPath{shape-rendering:crispEdges}
image{shape-rendering:crispEdges}
]]>
    </style>
    <clipPath id="id2">
      <rect width="595" height="842" y="0" x="0"/>
    </clipPath>
  </defs>
  <defs/>
  <g>
    <g transform="scale(1 -1)">
      <g transform="matrix(0 -1 1 0 0 0)" clip-path="url(#id2)" id="main">
        <g transform="scale(.12)">
          <path d="M284.07 3472.95h698.336v1373.1h-698.336Z" fill-rule="evenodd" stroke="none" fill="#d3d2d2"/>
          <path stroke-width="36.5484" d="M284.07 3472.95h698.336v1373.1h-698.336Z" stroke-miterlimit="11.4737" stroke="#221e1f" stroke-linejoin="miter" fill="none" stroke-linecap="butt"/>
          <path d="M1541.15 2218.59h698.332v1373.11h-698.332Z" fill-rule="evenodd" stroke="none" fill="#d3d2d2"/>
          <path stroke-width="36.5484" d="M1541.15 2218.59h698.332v1373.11h-698.332Z" stroke-miterlimit="11.4737" stroke="#221e1f" stroke-linejoin="miter" fill="none" stroke-linecap="butt"/>
          <path d="M2778.46 3472.95h698.336v1373.1h-698.336Z" fill-rule="evenodd" stroke="none" fill="#d3d2d2"/>
          <path stroke-width="36.5484" d="M2778.46 3472.95h698.336v1373.1h-698.336Z" stroke-miterlimit="11.4737" stroke="#221e1f" stroke-linejoin="miter" fill="none" stroke-linecap="butt"/>
          <path d="M1562 5293.84C1562 5705.01 1705.58 6040.4 1881.79 6040.4C2058.01 6040.4 2200.32 5705.01 2200.32 5293.84C2200.32 4882.67 2058.01 4547.1 1881.79 4547.1C1705.58 4547.1 1562 4882.67 1562 5293.84" fill-rule="evenodd" stroke="none" fill="#cce76e"/>
          <path stroke-width="36.5484" d="M1562 5293.84C1562 5705.01 1705.58 6040.4 1881.79 6040.4C2058.01 6040.4 2200.32 5705.01 2200.32 5293.84C2200.32 4882.67 2058.01 4547.1 1881.79 4547.1C1705.58 4547.1 1562 4882.67 1562 5293.84Z" stroke-miterlimit="11.4737" stroke="#221e1f" stroke-linejoin="miter" fill="none" stroke-linecap="butt"/>
          <path d="M2819.07 1808.69C2819.07 2219.86 2962.66 2555.25 3138.87 2555.25C3315.09 2555.25 3457.22 2219.86 3457.22 1808.69C3457.22 1397.52 3315.09 1061.95 3138.87 1061.95C2962.66 1061.95 2819.07 1397.52 2819.07 1808.69" fill-rule="evenodd" stroke="none" fill="#cce76e"/>
          <path stroke-width="36.5484" d="M2819.07 1808.69C2819.07 2219.86 2962.66 2555.25 3138.87 2555.25C3315.09 2555.25 3457.22 2219.86 3457.22 1808.69C3457.22 1397.52 3315.09 1061.95 3138.87 1061.95C2962.66 1061.95 2819.07 1397.52 2819.07 1808.69Z" stroke-miterlimit="11.4737" stroke="#221e1f" stroke-linejoin="miter" fill="none" stroke-linecap="butt"/>
          <path d="M3996.38 5194.68C3996.38 5605.84 4139.96 5941.23 4316.18 5941.23C4492.39 5941.23 4634.71 5605.84 4634.71 5194.68C4634.71 4783.5 4492.39 4447.93 4316.18 4447.93C4139.96 4447.93 3996.38 4783.5 3996.38 5194.68" fill-rule="evenodd" stroke="none" fill="#cce76e"/>
          <path stroke-width="36.5484" d="M3996.38 5194.68C3996.38 5605.84 4139.96 5941.23 4316.18 5941.23C4492.39 5941.23 4634.71 5605.84 4634.71 5194.68C4634.71 4783.5 4492.39 4447.93 4316.18 4447.93C4139.96 4447.93 3996.38 4783.5 3996.38 5194.68Z" stroke-miterlimit="11.4737" stroke="#221e1f" stroke-linejoin="miter" fill="none" stroke-linecap="butt"/>
          <path d="M4035.54 2984.73C4035.54 3395.9 4179.12 3731.29 4355.34 3731.29C4531.55 3731.29 4673.87 3395.9 4673.87 2984.73C4673.87 2573.56 4531.55 2238.17 4355.34 2238.17C4179.12 2238.17 4035.54 2573.56 4035.54 2984.73" fill-rule="evenodd" stroke="none" fill="#cce76e"/>
          <path stroke-width="36.5484" d="M4035.54 2984.73C4035.54 3395.9 4179.12 3731.29 4355.34 3731.29C4531.55 3731.29 4673.87 3395.9 4673.87 2984.73C4673.87 2573.56 4531.55 2238.17 4355.34 2238.17C4179.12 2238.17 4035.54 2573.56 4035.54 2984.73Z" stroke-miterlimit="11.4737" stroke="#221e1f" stroke-linejoin="miter" fill="none" stroke-linecap="butt"/>
          <path stroke-width="3.9159" d="M1102.6 4566.68C1419.68 4957 1122.18 4568.13 1402.82 4968.79" stroke-miterlimit="11.4737" stroke="#221e1f" stroke-linejoin="miter" fill="none" stroke-linecap="butt"/>
          <path d="M1439.26 5021L1320.52 4947.94C1360.94 4941.41 1391.04 4920.56 1410.62 4885.21L1439.26 5021" fill-rule="evenodd" stroke="none" fill="#221e1f"/>
          <path stroke-width="3.9159" d="M2379.08 3153.15C2696.34 3543.47 2398.66 3154.42 2679.3 3555.07" stroke-miterlimit="11.4737" stroke="#221e1f" stroke-linejoin="miter" fill="none" stroke-linecap="butt"/>
          <path d="M2715.92 3607.29L2597.17 3534.22C2637.6 3527.7 2667.51 3506.85 2687.09 3471.68L2715.92 3607.29" fill-rule="evenodd" stroke="none" fill="#221e1f"/>
          <path stroke-width="3.9159" d="M3616.57 4427.09C3933.65 4817.41 3636.15 4428.36 3916.79 4829.19" stroke-miterlimit="11.4737" stroke="#221e1f" stroke-linejoin="miter" fill="none" stroke-linecap="butt"/>
          <path d="M3953.23 4881.4L3834.49 4808.16C3874.91 4801.63 3905.01 4780.79 3924.59 4745.62L3953.23 4881.4" fill-rule="evenodd" stroke="none" fill="#221e1f"/>
          <path stroke-width="3.9159" d="M1102.6 3572.11C1400.1 3214.43 1102.6 3572.11 1401.37 3214.43" stroke-miterlimit="11.4737" stroke="#221e1f" stroke-linejoin="miter" fill="none" stroke-linecap="butt"/>
          <path d="M1441.98 3166.2L1401.37 3299.27C1385.78 3261.38 1357.14 3237.99 1317.98 3228.75L1441.98 3166.2" fill-rule="evenodd" stroke="none" fill="#221e1f"/>
          <path stroke-width="3.9159" d="M2419.5 2257.75C2717.19 1900.06 2419.5 2257.75 2718.45 1900.06" stroke-miterlimit="11.4737" stroke="#221e1f" stroke-linejoin="miter" fill="none" stroke-linecap="butt"/>
          <path d="M2758.88 1851.66L2718.45 1984.91C2702.86 1947.02 2674.04 1923.45 2634.88 1914.38L2758.88 1851.66" fill-rule="evenodd" stroke="none" fill="#221e1f"/>
          <path stroke-width="3.9159" d="M3616.57 3690.86C3914.07 3333.17 3616.57 3690.86 3915.52 3333.17" stroke-miterlimit="11.4737" stroke="#221e1f" stroke-linejoin="miter" fill="none" stroke-linecap="butt"/>
          <path d="M3955.95 3284.95L3915.52 3418.02C3899.75 3380.31 3871.11 3356.74 3831.95 3347.68L3955.95 3284.95" fill-rule="evenodd" stroke="none" fill="#221e1f"/>
          <path d="M759.234 3788.79L498.211 3886.68L498.211 3927.14L759.234 4021.11L759.234 3983.25L683.539 3955.85L683.539 3852.74L759.234 3825.34L759.234 3788.79ZM537.367 3904.95L652.215 3863.18L652.215 3945.41L537.367 3904.95L537.367 3904.95" fill-rule="evenodd" stroke="none" fill="#221e1f"/>
          <path d="M759.234 4049.82L498.211 4049.82L498.211 4081.14L759.234 4081.14L759.234 4049.82" fill-rule="evenodd" stroke="none" fill="#221e1f"/>
          <path d="M759.234 4198.6C760.543 4188.16 761.848 4180.33 761.848 4175.11C761.848 4162.06 757.93 4151.62 752.711 4146.39C746.184 4139.87 735.742 4137.26 720.082 4137.26L596.098 4137.26L596.098 4111.16L569.992 4111.16L569.992 4137.26L516.484 4137.26L516.484 4168.58L569.992 4168.58L569.992 4198.6L596.098 4198.6L596.098 4168.58L720.082 4168.58C725.305 4168.58 727.914 4171.19 730.523 4173.8C733.133 4177.72 734.438 4181.63 734.438 4188.16L734.438 4198.6L759.234 4198.6" fill-rule="evenodd" stroke="none" fill="#221e1f"/>
          <path d="M764.457 4306.93C764.457 4280.82 755.32 4258.64 738.355 4244.28C721.387 4228.62 697.895 4220.79 667.879 4220.79C636.555 4220.79 611.758 4228.62 592.18 4245.59C573.91 4261.25 563.469 4283.43 563.469 4310.84C563.469 4335.64 572.605 4355.21 592.18 4370.88C610.453 4386.54 633.945 4393.06 663.961 4393.06L675.707 4393.06L675.707 4254.72C693.98 4256.02 708.336 4259.94 718.777 4267.77C730.523 4276.91 737.051 4291.26 737.051 4310.84C737.051 4322.59 733.133 4333.03 726.609 4342.16C720.082 4351.3 710.945 4356.52 700.504 4359.13L700.504 4390.45C721.387 4385.23 737.051 4376.1 747.488 4361.74C759.234 4347.38 764.457 4329.11 764.457 4306.93L764.457 4306.93ZM649.605 4360.43L649.605 4360.43C632.641 4359.13 618.281 4355.21 609.148 4347.38C597.402 4338.25 592.18 4326.5 592.18 4309.54C592.18 4292.57 598.707 4279.52 611.758 4269.08C620.895 4261.25 633.945 4256.02 649.605 4254.72L649.605 4360.43" fill-rule="evenodd" stroke="none" fill="#221e1f"/>
          <path d="M759.234 4436.13L569.992 4436.13L569.992 4467.45L602.621 4467.45L602.621 4467.45C597.402 4470.07 592.18 4472.68 588.266 4475.29C572.605 4488.34 563.469 4502.69 563.469 4519.66C563.469 4523.57 564.773 4526.18 566.078 4528.8L598.707 4528.8L597.402 4522.27C597.402 4505.3 602.621 4492.25 613.063 4483.12C623.504 4473.98 639.164 4468.76 657.438 4468.76L759.234 4468.76L759.234 4436.13" fill-rule="evenodd" stroke="none" fill="#221e1f"/>
          <path d="M1813.95 2693.62L1813.95 2693.62C1798.28 2692.32 1785.23 2685.79 1776.1 2674.04C1766.96 2662.3 1763.04 2646.64 1763.04 2628.37C1763.04 2607.48 1766.96 2593.13 1774.79 2582.69C1782.62 2572.25 1793.06 2567.02 1808.72 2567.02C1817.86 2567.02 1825.69 2570.94 1830.91 2577.46C1836.13 2583.99 1840.05 2598.35 1845.27 2619.23L1855.71 2663.6C1862.23 2688.4 1870.07 2705.37 1881.81 2715.81C1893.56 2726.25 1909.22 2731.47 1930.1 2731.47C1953.59 2731.47 1971.86 2722.33 1986.22 2705.37C1999.27 2687.09 2005.8 2662.3 2005.8 2632.28C2005.8 2598.35 1997.96 2572.25 1982.3 2552.67C1966.64 2534.4 1945.76 2523.96 1918.36 2523.96L1915.74 2523.96L1915.74 2556.58C1935.32 2557.89 1949.68 2564.41 1960.12 2577.46C1970.56 2590.52 1975.78 2608.79 1975.78 2632.28C1975.78 2654.47 1971.86 2670.13 1964.03 2681.88C1956.2 2692.32 1945.76 2698.84 1931.41 2698.84C1918.36 2698.84 1909.22 2694.93 1904 2687.09C1897.47 2680.57 1892.25 2664.91 1887.03 2642.72L1875.29 2598.35C1870.07 2574.86 1862.23 2557.89 1853.1 2548.75C1843.96 2538.31 1829.61 2534.4 1812.64 2534.4C1787.84 2534.4 1768.27 2542.23 1753.91 2559.2C1739.55 2576.16 1731.72 2599.65 1731.72 2628.37C1731.72 2657.08 1739.55 2680.57 1753.91 2697.54C1768.27 2714.5 1789.15 2724.95 1813.95 2726.25L1813.95 2693.62" fill-rule="evenodd" stroke="none" fill="#221e1f"/>
          <path d="M2004.49 2848.93C2004.49 2822.83 1995.36 2801.95 1977.09 2786.29C1958.81 2769.32 1934.02 2761.49 1904 2761.49C1873.98 2761.49 1850.49 2769.32 1832.21 2784.98C1812.64 2801.95 1803.5 2822.83 1803.5 2848.93C1803.5 2875.03 1812.64 2897.22 1832.21 2912.88C1850.49 2929.85 1873.98 2937.68 1904 2937.68C1934.02 2937.68 1958.81 2929.85 1977.09 2912.88C1995.36 2897.22 2004.49 2875.03 2004.49 2848.93L2004.49 2848.93ZM1977.09 2848.93C1977.09 2865.9 1970.56 2878.95 1957.51 2889.39C1944.46 2899.83 1926.18 2903.75 1904 2903.75C1881.81 2903.75 1864.84 2899.83 1851.79 2889.39C1838.74 2878.95 1830.91 2865.9 1830.91 2848.93C1830.91 2831.96 1837.44 2818.91 1851.79 2809.78C1864.84 2799.34 1881.81 2794.12 1904 2794.12C1926.18 2794.12 1944.46 2799.34 1957.51 2809.78C1970.56 2818.91 1977.09 2831.96 1977.09 2848.93" fill-rule="evenodd" stroke="none" fill="#221e1f"/>
          <path d="M1999.27 2978.14L1810.03 2978.14L1810.03 3009.46L1842.66 3009.46L1842.66 3009.46C1837.44 3012.07 1832.21 3014.68 1828.3 3017.29C1812.64 3030.34 1803.5 3044.7 1803.5 3061.66C1803.5 3065.58 1804.81 3068.19 1806.11 3070.8L1838.74 3070.8L1837.44 3064.27C1837.44 3047.31 1842.66 3034.26 1853.1 3025.12C1863.54 3015.98 1879.2 3010.77 1897.47 3010.77L1999.27 3010.77L1999.27 2978.14" fill-rule="evenodd" stroke="none" fill="#221e1f"/>
          <path d="M1999.27 3164.77C2000.58 3154.33 2001.88 3146.5 2001.88 3141.28C2001.88 3128.23 1997.96 3117.79 1992.75 3112.56C1986.22 3106.04 1975.78 3103.43 1960.12 3103.43L1836.13 3103.43L1836.13 3077.32L1810.03 3077.32L1810.03 3103.43L1756.52 3103.43L1756.52 3134.75L1810.03 3134.75L1810.03 3164.77L1836.13 3164.77L1836.13 3134.75L1960.12 3134.75C1965.34 3134.75 1967.95 3137.36 1970.56 3139.97C1973.17 3143.89 1974.47 3147.8 1974.47 3154.33L1974.47 3164.77L1999.27 3164.77" fill-rule="evenodd" stroke="none" fill="#221e1f"/>
          <path d="M2004.49 3273.09C2004.49 3246.99 1995.36 3224.8 1978.39 3210.45C1961.42 3194.79 1937.93 3186.96 1907.91 3186.96C1876.59 3186.96 1851.79 3194.79 1832.21 3211.75C1813.95 3227.41 1803.5 3249.6 1803.5 3277.01C1803.5 3301.8 1812.64 3321.38 1832.21 3337.04C1850.49 3352.71 1873.98 3359.23 1904 3359.23L1915.74 3359.23L1915.74 3220.89C1934.02 3222.2 1948.37 3226.11 1958.81 3233.94C1970.56 3243.07 1977.09 3257.43 1977.09 3277.01C1977.09 3288.75 1973.17 3299.2 1966.64 3308.33C1960.12 3317.47 1950.98 3322.69 1940.54 3325.3L1940.54 3356.62C1961.42 3351.4 1977.09 3342.27 1987.52 3327.91C1999.27 3313.55 2004.49 3295.28 2004.49 3273.09L2004.49 3273.09ZM1889.64 3326.61L1889.64 3326.61C1872.68 3325.3 1858.32 3321.38 1849.18 3313.55C1837.44 3304.42 1832.21 3292.67 1832.21 3275.7C1832.21 3258.74 1838.74 3245.69 1851.79 3235.25C1860.93 3227.41 1873.98 3222.2 1889.64 3220.89L1889.64 3326.61" fill-rule="evenodd" stroke="none" fill="#221e1f"/>
          <path d="M3256.27 3711.78L2995.25 3711.78L2995.25 3825.32C2995.25 3847.51 3001.78 3865.78 3012.22 3878.83C3023.96 3893.19 3039.63 3899.71 3057.9 3899.71C3080.09 3899.71 3097.05 3891.88 3108.8 3876.22C3111.41 3872.31 3114.02 3868.39 3115.32 3864.48L3115.32 3864.48C3119.24 3872.31 3123.15 3880.14 3127.07 3886.66C3140.12 3903.63 3157.09 3911.46 3179.27 3911.46C3202.77 3911.46 3222.34 3903.63 3235.39 3886.66C3249.75 3871 3256.27 3847.51 3256.27 3817.49L3256.27 3711.78ZM3026.57 3747.02L3106.19 3747.02L3106.19 3809.66C3106.19 3827.93 3103.58 3842.29 3097.05 3851.43C3089.22 3860.56 3078.78 3864.48 3063.12 3864.48C3051.37 3864.48 3040.93 3860.56 3035.71 3852.73C3029.18 3844.9 3026.57 3831.85 3026.57 3813.58L3026.57 3747.02ZM3134.9 3747.02L3226.26 3747.02L3226.26 3818.8C3226.26 3838.38 3222.34 3852.73 3214.51 3863.17C3206.68 3872.31 3193.63 3876.22 3177.97 3876.22C3163.61 3876.22 3151.87 3872.31 3145.34 3861.87C3138.82 3852.73 3134.9 3837.07 3134.9 3816.19L3134.9 3747.02" fill-rule="evenodd" stroke="none" fill="#221e1f"/>
          <path d="M3261.5 4026.31C3261.5 4000.21 3252.36 3979.33 3234.09 3963.66C3215.82 3946.7 3191.02 3938.87 3161 3938.87C3130.98 3938.87 3107.49 3946.7 3089.22 3962.36C3069.64 3979.33 3060.51 4000.21 3060.51 4026.31C3060.51 4052.41 3069.64 4074.6 3089.22 4090.26C3107.49 4107.23 3130.98 4115.06 3161 4115.06C3191.02 4115.06 3215.82 4107.23 3234.09 4090.26C3252.36 4074.6 3261.5 4052.41 3261.5 4026.31L3261.5 4026.31ZM3234.09 4026.31C3234.09 4043.28 3227.56 4056.33 3214.51 4066.77C3201.46 4077.21 3183.19 4081.13 3161 4081.13C3138.82 4081.13 3121.85 4077.21 3108.8 4066.77C3095.75 4056.33 3087.91 4043.28 3087.91 4026.31C3087.91 4009.34 3094.44 3996.29 3108.8 3987.16C3121.85 3976.71 3138.82 3971.5 3161 3971.5C3183.19 3971.5 3201.46 3976.71 3214.51 3987.16C3227.56 3996.29 3234.09 4009.34 3234.09 4026.31" fill-rule="evenodd" stroke="none" fill="#221e1f"/>
          <path d="M3261.5 4223.38C3261.5 4198.59 3252.36 4177.7 3232.78 4163.35C3214.51 4148.99 3188.41 4141.16 3155.78 4141.16C3128.38 4141.16 3104.88 4147.69 3087.91 4162.04C3069.64 4177.7 3060.51 4195.98 3060.51 4219.47C3060.51 4242.96 3070.95 4261.23 3090.52 4274.29L3094.44 4276.89L2995.25 4276.89L2995.25 4309.52L3256.27 4309.52L3256.27 4279.5L3230.17 4279.5L3230.17 4279.5L3236.7 4275.59C3252.36 4262.54 3261.5 4245.57 3261.5 4223.38L3261.5 4223.38ZM3089.22 4225.99C3089.22 4207.72 3095.75 4194.67 3106.19 4186.84C3117.93 4179.01 3136.2 4173.79 3161 4173.79C3184.49 4173.79 3202.77 4179.01 3215.82 4186.84C3227.56 4195.98 3234.09 4209.03 3234.09 4225.99C3234.09 4241.66 3228.87 4253.4 3217.12 4262.54C3205.38 4272.98 3189.71 4276.89 3170.14 4276.89C3144.04 4276.89 3124.46 4272.98 3111.41 4263.84C3097.05 4254.71 3089.22 4241.66 3089.22 4225.99" fill-rule="evenodd" stroke="none" fill="#221e1f"/>
          <path d="M3261.5 4430.9C3261.5 4404.8 3252.36 4382.61 3235.39 4368.25C3218.43 4352.59 3194.93 4344.76 3164.92 4344.76C3133.59 4344.76 3108.8 4352.59 3089.22 4369.56C3070.95 4385.22 3060.51 4407.41 3060.51 4434.81C3060.51 4459.61 3069.64 4479.19 3089.22 4494.85C3107.49 4510.51 3130.98 4517.04 3161 4517.04L3172.75 4517.04L3172.75 4378.69C3191.02 4380 3205.38 4383.91 3215.82 4391.74C3227.56 4400.88 3234.09 4415.23 3234.09 4434.81C3234.09 4446.56 3230.17 4457 3223.65 4466.14C3217.12 4475.27 3207.98 4480.49 3197.54 4483.1L3197.54 4514.43C3218.43 4509.2 3234.09 4500.07 3244.53 4485.71C3256.27 4471.36 3261.5 4453.09 3261.5 4430.9L3261.5 4430.9ZM3146.64 4484.41L3146.64 4484.41C3129.68 4483.1 3115.32 4479.19 3106.19 4471.36C3094.44 4462.22 3089.22 4450.47 3089.22 4433.51C3089.22 4416.54 3095.75 4403.49 3108.8 4393.05C3117.93 4385.22 3130.98 4380 3146.64 4378.69L3146.64 4484.41" fill-rule="evenodd" stroke="none" fill="#221e1f"/>
          <path d="M3256.27 4556.19L3067.03 4556.19L3067.03 4586.21L3094.44 4586.21L3094.44 4586.21L3085.3 4594.04C3069.64 4607.09 3060.51 4625.36 3060.51 4644.94C3060.51 4665.82 3067.03 4682.79 3077.47 4694.53C3089.22 4704.97 3104.88 4711.5 3127.07 4711.5L3256.27 4711.5L3256.27 4678.87L3137.51 4678.87C3120.54 4678.87 3108.8 4676.26 3100.96 4669.73C3094.44 4663.21 3090.52 4652.77 3090.52 4638.41C3090.52 4622.75 3095.75 4611 3107.49 4601.87C3119.24 4592.73 3134.9 4587.51 3154.48 4587.51L3256.27 4587.51L3256.27 4556.19" fill-rule="evenodd" stroke="none" fill="#221e1f"/>
          <path d="M3063.12 1678.12L3063.12 1710.75L3278.46 1710.75C3295.43 1710.75 3308.48 1706.83 3316.31 1699C3324.14 1692.48 3328.05 1679.43 3328.05 1662.46C3328.05 1657.24 3328.05 1653.32 3326.75 1649.41L3299.34 1649.41L3299.34 1654.63C3299.34 1663.77 3298.04 1670.29 3295.43 1674.21C3292.82 1676.82 3286.29 1678.12 3278.46 1678.12L3063.12 1678.12ZM2991.34 1678.12L2991.34 1710.75L3027.88 1710.75L3027.88 1678.12L2991.34 1678.12" fill-rule="evenodd" stroke="none" fill="#ee1c23"/>
          <path d="M3257.58 1808.63C3257.58 1790.36 3252.36 1776 3243.22 1765.56C3232.78 1753.82 3219.73 1748.6 3202.77 1748.6C3185.8 1748.6 3171.44 1753.82 3162.3 1764.26C3151.86 1774.7 3145.34 1789.05 3142.73 1808.63L3137.51 1851.7C3137.51 1855.62 3136.2 1859.53 3136.2 1862.14C3134.9 1866.06 3132.29 1869.97 3129.68 1871.28C3125.76 1873.89 3121.85 1875.2 3117.93 1875.2L3115.32 1875.2C3106.19 1875.2 3097.05 1871.28 3091.83 1863.45C3086.61 1855.62 3084 1845.18 3084 1832.13C3084 1819.07 3086.61 1808.63 3091.83 1800.8C3098.36 1792.97 3107.49 1789.05 3119.24 1787.75L3119.24 1757.73C3098.36 1759.04 3082.7 1766.87 3072.25 1779.92C3061.81 1792.97 3056.59 1812.55 3056.59 1836.04C3056.59 1859.53 3061.81 1876.5 3072.25 1889.55C3081.39 1901.3 3097.05 1906.52 3115.32 1906.52L3219.73 1906.52C3223.65 1906.52 3226.26 1907.82 3227.56 1910.43C3228.87 1911.74 3230.17 1914.35 3230.17 1918.26C3230.17 1918.26 3230.17 1919.57 3230.17 1922.18C3230.17 1923.48 3228.87 1926.09 3228.87 1927.4L3252.36 1927.4C3253.66 1924.79 3253.66 1922.18 3254.97 1918.26C3256.27 1914.35 3256.27 1911.74 3256.27 1909.13C3256.27 1897.38 3252.36 1888.25 3245.83 1883.02C3241.92 1879.11 3235.39 1876.5 3227.56 1875.2L3227.56 1875.2C3230.17 1873.89 3232.78 1869.97 3236.7 1867.36C3249.75 1851.7 3257.58 1832.13 3257.58 1808.63L3257.58 1808.63ZM3176.66 1875.2L3157.09 1875.2L3157.09 1875.2C3159.7 1868.67 3161 1862.14 3162.3 1855.62L3166.22 1826.9C3168.83 1811.24 3172.75 1799.5 3177.97 1792.97C3181.88 1785.14 3189.71 1782.53 3197.54 1782.53C3207.98 1782.53 3217.12 1785.14 3222.34 1790.36C3227.56 1796.89 3231.48 1804.72 3231.48 1815.16C3231.48 1832.13 3226.26 1846.48 3217.12 1858.23C3210.59 1866.06 3204.07 1871.28 3196.24 1873.89C3194.93 1873.89 3192.32 1873.89 3188.41 1875.2C3185.8 1875.2 3181.88 1875.2 3176.66 1875.2" fill-rule="evenodd" stroke="none" fill="#ee1c23"/>
          <path d="M4414.07 4917.88L4224.83 4917.88L4224.83 4947.89L4252.24 4947.89L4252.24 4947.89L4243.11 4955.72C4227.45 4968.77 4218.31 4987.05 4218.31 5006.62C4218.31 5027.5 4224.83 5044.47 4235.27 5056.22C4247.02 5066.66 4262.68 5073.18 4284.87 5073.18L4414.07 5073.18L4414.07 5040.55L4295.31 5040.55C4278.34 5040.55 4266.6 5037.95 4258.77 5031.42C4252.24 5024.89 4248.32 5014.45 4248.32 5000.1C4248.32 4984.44 4253.55 4972.69 4265.29 4963.55C4277.04 4954.42 4292.7 4949.2 4312.28 4949.2L4414.07 4949.2L4414.07 4917.88" fill-rule="evenodd" stroke="none" fill="#ee1c23"/>
          <path d="M4419.3 5197.17C4419.3 5171.07 4410.16 5148.88 4393.2 5134.52C4376.23 5118.86 4352.73 5111.03 4322.72 5111.03C4291.39 5111.03 4266.6 5118.86 4247.02 5135.83C4228.75 5151.49 4218.31 5173.68 4218.31 5201.09C4218.31 5225.88 4227.45 5245.46 4247.02 5261.12C4265.29 5276.78 4288.79 5283.31 4318.8 5283.31L4330.55 5283.31L4330.55 5144.96C4348.82 5146.27 4363.18 5150.19 4373.62 5158.02C4385.36 5167.15 4391.89 5181.51 4391.89 5201.09C4391.89 5212.83 4387.97 5223.27 4381.45 5232.41C4374.92 5241.54 4365.79 5246.77 4355.34 5249.38L4355.34 5280.7C4376.23 5275.48 4391.89 5266.34 4402.33 5251.98C4414.07 5237.63 4419.3 5219.36 4419.3 5197.17L4419.3 5197.17ZM4304.45 5250.68L4304.45 5250.68C4287.48 5249.38 4273.12 5245.46 4263.99 5237.63C4252.24 5228.49 4247.02 5216.75 4247.02 5199.78C4247.02 5182.81 4253.55 5169.76 4266.6 5159.32C4275.73 5151.49 4288.79 5146.27 4304.45 5144.96L4304.45 5250.68" fill-rule="evenodd" stroke="none" fill="#ee1c23"/>
          <path d="M4414.07 5323.77L4224.83 5323.77L4224.83 5355.09L4414.07 5355.09L4414.07 5323.77ZM4153.05 5323.77L4153.05 5356.39L4189.59 5356.39L4189.59 5323.77L4153.05 5323.77" fill-rule="evenodd" stroke="none" fill="#ee1c23"/>
          <path d="M4414.07 5403.38L4224.83 5403.38L4224.83 5433.4L4252.24 5433.4L4252.24 5433.4L4243.11 5441.23C4227.45 5454.28 4218.31 5472.55 4218.31 5492.13C4218.31 5513.01 4224.83 5529.98 4235.27 5541.72C4247.02 5552.16 4262.68 5558.69 4284.87 5558.69L4414.07 5558.69L4414.07 5526.06L4295.31 5526.06C4278.34 5526.06 4266.6 5523.45 4258.77 5516.93C4252.24 5510.4 4248.32 5499.96 4248.32 5485.6C4248.32 5469.94 4253.55 5458.2 4265.29 5449.06C4277.04 5439.92 4292.7 5434.7 4312.28 5434.7L4414.07 5434.7L4414.07 5403.38" fill-rule="evenodd" stroke="none" fill="#ee1c23"/>
          <path d="M4263.99 2880.3L4263.99 2912.93L4479.34 2912.93C4496.3 2912.93 4509.36 2909.02 4517.19 2901.18C4525.02 2894.66 4528.93 2881.61 4528.93 2864.64C4528.93 2859.42 4528.93 2855.5 4527.63 2851.59L4500.22 2851.59L4500.22 2856.81C4500.22 2865.95 4498.91 2872.47 4496.3 2876.39C4493.7 2879 4487.17 2880.3 4479.34 2880.3L4263.99 2880.3ZM4192.21 2880.3L4192.21 2912.93L4228.75 2912.93L4228.75 2880.3L4192.21 2880.3" fill-rule="evenodd" stroke="none" fill="#ee1c23"/>
          <path d="M4458.46 3010.81C4458.46 2992.54 4453.23 2978.19 4444.1 2967.75C4433.66 2956 4420.61 2950.78 4403.64 2950.78C4386.67 2950.78 4372.32 2956 4363.18 2966.44C4352.74 2976.88 4346.21 2991.24 4343.61 3010.81L4338.38 3053.88C4338.38 3057.8 4337.08 3061.71 4337.08 3064.32C4335.77 3068.24 4333.16 3072.16 4330.55 3073.46C4326.64 3076.07 4322.72 3077.38 4318.81 3077.38L4316.2 3077.38C4307.06 3077.38 4297.93 3073.46 4292.71 3065.63C4287.48 3057.8 4284.88 3047.36 4284.88 3034.3C4284.88 3021.25 4287.48 3010.81 4292.71 3002.98C4299.23 2995.15 4308.37 2991.24 4320.11 2989.93L4320.11 2959.91C4299.23 2961.22 4283.57 2969.05 4273.13 2982.1C4262.69 2995.15 4257.47 3014.73 4257.47 3038.22C4257.47 3061.71 4262.69 3078.68 4273.13 3091.73C4282.27 3103.48 4297.93 3108.7 4316.2 3108.7L4420.61 3108.7C4424.52 3108.7 4427.13 3110 4428.44 3112.61C4429.74 3113.92 4431.05 3116.53 4431.05 3120.45C4431.05 3120.45 4431.05 3121.75 4431.05 3124.36C4431.05 3125.66 4429.74 3128.27 4429.74 3129.58L4453.23 3129.58C4454.54 3126.97 4454.54 3124.36 4455.84 3120.45C4457.15 3116.53 4457.15 3113.92 4457.15 3111.31C4457.15 3099.56 4453.23 3090.43 4446.71 3085.21C4442.79 3081.29 4436.27 3078.68 4428.44 3077.38L4428.44 3077.38C4431.05 3076.07 4433.66 3072.16 4437.57 3069.54C4450.63 3053.88 4458.46 3034.3 4458.46 3010.81L4458.46 3010.81ZM4377.54 3077.38L4357.96 3077.38L4357.96 3077.38C4360.57 3070.85 4361.88 3064.32 4363.18 3057.8L4367.1 3029.09C4369.71 3013.43 4373.62 3001.68 4378.84 2995.15C4382.76 2987.32 4390.59 2984.71 4398.42 2984.71C4408.86 2984.71 4418 2987.32 4423.22 2992.54C4428.44 2999.07 4432.35 3006.9 4432.35 3017.34C4432.35 3034.3 4427.13 3048.66 4418 3060.41C4411.47 3068.24 4404.95 3073.46 4397.11 3076.07C4395.81 3076.07 4393.2 3076.07 4389.29 3077.38C4386.67 3077.38 4382.76 3077.38 4377.54 3077.38" fill-rule="evenodd" stroke="none" fill="#ee1c23"/>
          <path d="M1981 4975.31L1791.75 4975.31L1791.75 5005.32L1819.16 5005.32L1819.16 5005.32L1810.03 5013.16C1794.37 5026.21 1785.23 5044.48 1785.23 5064.05C1785.23 5084.94 1791.75 5101.91 1802.2 5113.65C1813.94 5124.09 1829.6 5130.62 1851.79 5130.62L1981 5130.62L1981 5097.99L1862.23 5097.99C1845.27 5097.99 1833.52 5095.38 1825.69 5088.85C1819.16 5082.33 1815.25 5071.89 1815.25 5057.53C1815.25 5041.87 1820.47 5030.12 1832.21 5020.99C1843.96 5011.85 1859.62 5006.63 1879.2 5006.63L1981 5006.63L1981 4975.31" fill-rule="evenodd" stroke="none" fill="#ee1c23"/>
          <path d="M1986.22 5254.6C1986.22 5228.5 1977.08 5206.31 1960.12 5191.96C1943.15 5176.3 1919.66 5168.46 1889.64 5168.46C1858.32 5168.46 1833.52 5176.3 1813.94 5193.26C1795.67 5208.93 1785.23 5231.11 1785.23 5258.52C1785.23 5283.32 1794.37 5302.89 1813.94 5318.55C1832.21 5334.21 1855.71 5340.74 1885.72 5340.74L1897.47 5340.74L1897.47 5202.4C1915.74 5203.7 1930.1 5207.62 1940.54 5215.45C1952.29 5224.59 1958.81 5238.94 1958.81 5258.52C1958.81 5270.27 1954.89 5280.71 1948.37 5289.84C1941.84 5298.98 1932.71 5304.2 1922.27 5306.81L1922.27 5338.13C1943.15 5332.91 1958.81 5323.77 1969.25 5309.42C1981 5295.06 1986.22 5276.79 1986.22 5254.6L1986.22 5254.6ZM1871.37 5308.11L1871.37 5308.11C1854.4 5306.81 1840.04 5302.89 1830.91 5295.06C1819.16 5285.93 1813.94 5274.18 1813.94 5257.21C1813.94 5240.25 1820.47 5227.2 1833.52 5216.75C1842.66 5208.93 1855.71 5203.7 1871.37 5202.4L1871.37 5308.11" fill-rule="evenodd" stroke="none" fill="#ee1c23"/>
          <path d="M1981 5381.2L1791.75 5381.2L1791.75 5412.52L1981 5412.52L1981 5381.2ZM1719.97 5381.2L1719.97 5413.83L1756.52 5413.83L1756.52 5381.2L1719.97 5381.2" fill-rule="evenodd" stroke="none" fill="#ee1c23"/>
          <path d="M1981 5460.81L1791.75 5460.81L1791.75 5490.83L1819.16 5490.83L1819.16 5490.83L1810.03 5498.66C1794.37 5511.71 1785.23 5529.98 1785.23 5549.56C1785.23 5570.44 1791.75 5587.41 1802.2 5599.16C1813.94 5609.59 1829.6 5616.12 1851.79 5616.12L1981 5616.12L1981 5583.49L1862.23 5583.49C1845.27 5583.49 1833.52 5580.88 1825.69 5574.36C1819.16 5567.83 1815.25 5557.39 1815.25 5543.04C1815.25 5527.38 1820.47 5515.63 1832.21 5506.49C1843.96 5497.36 1859.62 5492.14 1879.2 5492.14L1981 5492.14L1981 5460.81" fill-rule="evenodd" stroke="none" fill="#ee1c23"/>
          <path d="M1265.69 2813.73C1265.69 2799.37 1261.78 2787.63 1253.95 2778.49C1246.12 2769.35 1235.68 2765.44 1221.32 2765.44C1208.27 2765.44 1197.82 2769.35 1190 2777.18C1182.16 2786.32 1176.95 2798.07 1174.34 2813.73L1170.42 2847.66C1170.42 2850.27 1169.11 2854.18 1169.11 2856.8C1167.81 2859.41 1166.5 2862.02 1163.89 2863.32C1161.28 2865.93 1157.37 2865.93 1153.45 2865.93L1152.15 2865.93C1144.32 2865.93 1137.79 2863.32 1133.88 2856.8C1128.66 2851.57 1127.35 2842.44 1127.35 2832C1127.35 2821.56 1128.66 2812.42 1133.88 2807.2C1139.1 2800.68 1145.62 2798.07 1156.06 2796.76L1156.06 2773.27C1139.1 2774.57 1126.04 2779.79 1118.21 2790.23C1110.38 2800.68 1106.47 2816.34 1106.47 2835.91C1106.47 2854.18 1110.38 2868.54 1118.21 2877.68C1126.04 2886.81 1137.79 2892.04 1152.15 2892.04L1235.68 2892.04C1238.29 2892.04 1240.89 2893.34 1242.2 2894.64C1243.5 2895.95 1244.81 2898.56 1244.81 2901.17C1244.81 2901.17 1244.81 2902.48 1243.5 2903.78C1243.5 2905.09 1243.5 2906.39 1243.5 2909L1261.78 2909C1263.08 2906.39 1263.08 2903.78 1264.39 2901.17C1264.39 2898.56 1264.39 2895.95 1264.39 2893.34C1264.39 2884.2 1261.78 2877.68 1256.55 2872.46C1253.95 2869.85 1248.73 2868.54 1242.2 2867.24L1242.2 2867.24C1244.81 2864.63 1246.12 2863.32 1248.73 2860.71C1260.47 2847.66 1265.69 2832 1265.69 2813.73L1265.69 2813.73ZM1201.74 2865.93L1184.77 2865.93L1184.77 2865.93C1187.39 2862.02 1188.69 2856.8 1190 2850.27L1193.91 2828.08C1195.21 2815.03 1197.82 2805.89 1201.74 2800.68C1205.66 2795.45 1212.18 2791.54 1218.71 2791.54C1226.54 2791.54 1233.06 2794.15 1238.29 2799.37C1242.2 2803.29 1244.81 2809.81 1244.81 2818.95C1244.81 2832 1240.89 2843.75 1234.37 2852.88C1229.15 2859.41 1222.63 2863.32 1216.1 2864.63C1216.1 2865.93 1213.49 2865.93 1210.88 2865.93C1208.27 2865.93 1205.66 2865.93 1201.74 2865.93" fill-rule="evenodd" stroke="none" fill="#221e1f"/>
          <path d="M1261.78 2935.1L1054.26 2935.1L1054.26 2959.9L1261.78 2959.9L1261.78 2935.1" fill-rule="evenodd" stroke="none" fill="#221e1f"/>
          <path d="M1261.78 3053.87C1263.08 3044.73 1263.08 3039.51 1263.08 3034.29C1263.08 3023.85 1260.47 3016.02 1256.55 3010.8C1251.34 3006.88 1242.2 3004.27 1230.45 3004.27L1131.27 3004.27L1131.27 2983.39L1110.38 2983.39L1110.38 3004.27L1067.31 3004.27L1067.31 3030.38L1110.38 3030.38L1110.38 3053.87L1131.27 3053.87L1131.27 3030.38L1230.45 3030.38C1234.37 3030.38 1236.98 3031.68 1239.59 3034.29C1240.89 3036.9 1242.2 3040.82 1242.2 3044.73L1242.2 3053.87L1261.78 3053.87" fill-rule="evenodd" stroke="none" fill="#221e1f"/>
          <path d="M1110.38 5105.84L1110.38 5130.64L1282.66 5130.64C1297.02 5130.64 1306.15 5128.03 1312.68 5121.5C1319.2 5116.28 1321.81 5105.84 1321.81 5092.79C1321.81 5088.87 1321.81 5084.96 1321.81 5082.35L1299.63 5082.35L1299.63 5086.26C1299.63 5094.09 1298.32 5099.31 1295.71 5101.92C1293.1 5104.54 1289.18 5105.84 1282.66 5105.84L1110.38 5105.84ZM1054.26 5105.84L1054.26 5130.64L1082.98 5130.64L1082.98 5105.84L1054.26 5105.84" fill-rule="evenodd" stroke="none" fill="#221e1f"/>
          <path d="M1110.38 5195.89L1208.27 5195.89C1221.32 5195.89 1230.45 5198.5 1235.68 5202.42C1240.89 5207.64 1243.5 5215.47 1243.5 5227.21C1243.5 5238.96 1239.59 5248.1 1230.45 5255.93C1220.01 5262.45 1206.96 5266.37 1191.3 5266.37L1110.38 5266.37L1110.38 5292.47L1261.78 5292.47L1261.78 5267.67L1238.29 5267.67L1238.29 5267.67C1240.89 5266.37 1243.5 5263.76 1246.12 5262.45C1259.17 5252.01 1265.69 5237.66 1265.69 5222C1265.69 5203.72 1261.78 5190.67 1252.64 5182.84C1244.81 5173.71 1231.76 5169.79 1214.79 5169.79L1110.38 5169.79L1110.38 5195.89" fill-rule="evenodd" stroke="none" fill="#221e1f"/>
          <path d="M1261.78 5329.02L1110.38 5329.02L1110.38 5353.81L1132.57 5353.81L1132.57 5353.81L1124.74 5359.03C1112.99 5370.78 1106.47 5383.83 1106.47 5400.8C1106.47 5417.76 1110.38 5430.81 1119.52 5439.95C1128.66 5449.09 1141.71 5453 1158.67 5453L1261.78 5453L1261.78 5428.2L1166.5 5428.2C1153.45 5428.2 1144.32 5425.59 1137.79 5420.37C1132.57 5415.15 1128.66 5406.02 1128.66 5394.27C1128.66 5382.52 1133.88 5373.39 1143.01 5365.56C1152.15 5359.03 1165.2 5355.12 1180.86 5355.12L1261.78 5355.12L1261.78 5329.02" fill-rule="evenodd" stroke="none" fill="#221e1f"/>
          <path d="M1304.85 5545.66C1304.85 5560.02 1299.63 5571.77 1290.49 5578.29C1281.36 5586.12 1268.3 5590.04 1250.03 5590.04L1246.12 5590.04L1246.12 5590.04C1259.17 5579.6 1265.69 5566.55 1265.69 5549.58C1265.69 5528.7 1257.86 5513.04 1243.5 5501.29C1227.84 5489.54 1206.96 5483.02 1182.16 5483.02C1158.67 5483.02 1140.4 5488.24 1127.35 5499.98C1112.99 5511.73 1106.47 5527.39 1106.47 5546.97C1106.47 5565.24 1114.3 5579.6 1129.96 5590.04L1132.57 5591.34L1110.38 5591.34L1110.38 5616.14L1250.03 5616.14C1276.13 5616.14 1295.71 5609.61 1307.46 5599.17C1319.2 5587.43 1325.73 5569.16 1325.73 5545.66C1325.73 5528.7 1321.81 5515.64 1313.98 5505.21C1306.15 5494.77 1294.41 5488.24 1278.74 5486.93L1278.74 5513.04C1287.88 5514.34 1293.1 5518.26 1298.32 5523.48C1302.23 5528.7 1304.85 5536.53 1304.85 5545.66L1304.85 5545.66ZM1128.66 5550.88C1128.66 5536.53 1133.88 5526.09 1143.01 5519.56C1152.15 5513.04 1166.5 5509.12 1186.08 5509.12C1204.35 5509.12 1218.71 5513.04 1229.15 5519.56C1238.29 5527.39 1243.5 5537.83 1243.5 5550.88C1243.5 5562.63 1239.59 5573.07 1230.45 5580.9C1221.32 5587.43 1208.27 5591.34 1193.91 5591.34C1171.72 5591.34 1156.06 5588.73 1145.62 5580.9C1133.88 5574.38 1128.66 5563.94 1128.66 5550.88" fill-rule="evenodd" stroke="none" fill="#221e1f"/>
          <path d="M2411.77 960.207L2411.77 988.922L2535.75 1030.68L2535.75 1030.68L2411.77 1072.45L2411.77 1099.86L2563.16 1043.73L2563.16 1016.33L2411.77 960.207" fill-rule="evenodd" stroke="none" fill="#221e1f"/>
          <path d="M2567.08 1183.38C2567.08 1161.2 2560.55 1144.23 2547.5 1132.48C2533.14 1120.74 2514.87 1114.21 2490.07 1114.21C2465.28 1114.21 2444.39 1120.74 2430.04 1133.79C2414.38 1146.84 2407.85 1163.81 2407.85 1186C2407.85 1205.57 2414.38 1221.23 2428.73 1234.29C2444.39 1246.03 2463.97 1252.55 2487.46 1252.55L2496.6 1251.25L2496.6 1141.62C2510.96 1141.62 2522.7 1145.54 2530.53 1152.06C2540.97 1158.59 2544.89 1170.33 2544.89 1186C2544.89 1195.13 2542.28 1204.27 2537.06 1210.79C2531.84 1218.62 2525.31 1222.54 2516.18 1223.84L2516.18 1249.95C2533.14 1246.03 2544.89 1238.2 2554.02 1226.45C2563.16 1216.01 2567.08 1200.35 2567.08 1183.38L2567.08 1183.38ZM2475.72 1225.15L2475.72 1225.15C2461.36 1225.15 2450.92 1221.23 2443.09 1214.71C2433.95 1208.18 2430.04 1197.74 2430.04 1184.69C2430.04 1171.64 2435.26 1159.89 2444.39 1152.06C2452.23 1146.84 2462.67 1142.93 2475.72 1141.62L2475.72 1225.15" fill-rule="evenodd" stroke="none" fill="#221e1f"/>
          <path d="M2563.16 1285.18L2411.77 1285.18L2411.77 1309.98L2437.87 1309.98L2437.87 1309.98C2433.95 1311.29 2430.04 1313.89 2426.13 1316.51C2414.38 1325.64 2407.85 1337.39 2407.85 1351.75C2407.85 1354.36 2407.85 1356.96 2409.16 1359.57L2433.95 1359.57L2433.95 1354.36C2433.95 1340 2439.18 1329.56 2447 1321.73C2454.84 1315.2 2466.58 1311.29 2482.24 1311.29L2563.16 1311.29L2563.16 1285.18" fill-rule="evenodd" stroke="none" fill="#221e1f"/>
          <path d="M2567.08 1440.49C2567.08 1418.3 2560.55 1401.34 2547.5 1389.59C2533.14 1377.85 2514.87 1371.32 2490.07 1371.32C2465.28 1371.32 2444.39 1377.85 2430.04 1390.9C2414.38 1403.95 2407.85 1420.91 2407.85 1443.1C2407.85 1462.68 2414.38 1478.34 2428.73 1491.39C2444.39 1503.14 2463.97 1509.66 2487.46 1509.66L2496.6 1508.36L2496.6 1398.73C2510.96 1398.73 2522.7 1402.64 2530.53 1409.17C2540.97 1415.7 2544.89 1427.44 2544.89 1443.1C2544.89 1452.24 2542.28 1461.38 2537.06 1467.9C2531.84 1475.73 2525.31 1479.64 2516.18 1480.95L2516.18 1507.05C2533.14 1503.14 2544.89 1495.31 2554.02 1483.56C2563.16 1473.12 2567.08 1457.46 2567.08 1440.49L2567.08 1440.49ZM2475.72 1482.26L2475.72 1482.26C2461.36 1482.26 2450.92 1478.34 2443.09 1471.82C2433.95 1465.29 2430.04 1454.85 2430.04 1441.8C2430.04 1428.75 2435.26 1417 2444.39 1409.17C2452.23 1403.95 2462.67 1400.04 2475.72 1398.73L2475.72 1482.26" fill-rule="evenodd" stroke="none" fill="#221e1f"/>
          <path d="M2567.08 1597.11C2567.08 1576.23 2559.25 1560.56 2544.89 1548.82C2529.23 1535.77 2508.35 1530.55 2483.55 1530.55C2460.05 1530.55 2441.79 1535.77 2428.73 1547.51C2414.38 1559.26 2407.85 1574.92 2407.85 1593.19C2407.85 1611.46 2415.68 1627.13 2431.34 1637.57L2433.95 1638.87L2355.65 1638.87L2355.65 1664.97L2563.16 1664.97L2563.16 1641.48L2542.28 1641.48L2542.28 1641.48L2547.5 1637.57C2560.55 1627.13 2567.08 1614.07 2567.08 1597.11L2567.08 1597.11ZM2430.04 1598.41C2430.04 1584.05 2435.26 1573.61 2444.39 1567.09C2452.23 1560.56 2467.89 1556.65 2487.46 1556.65C2505.73 1556.65 2520.09 1560.56 2530.53 1567.09C2540.97 1574.92 2544.89 1585.36 2544.89 1598.41C2544.89 1610.16 2540.97 1620.6 2531.84 1628.43C2522.7 1634.95 2509.65 1638.87 2495.29 1638.87C2474.41 1638.87 2457.45 1636.26 2447 1628.43C2435.26 1621.9 2430.04 1611.46 2430.04 1598.41" fill-rule="evenodd" stroke="none" fill="#221e1f"/>
          <path d="M2567.08 1761.55C2567.08 1739.36 2560.55 1722.4 2547.5 1710.65C2533.14 1698.91 2514.87 1692.38 2490.07 1692.38C2465.28 1692.38 2444.39 1698.91 2430.04 1711.96C2414.38 1725.01 2407.85 1741.98 2407.85 1764.16C2407.85 1783.74 2414.38 1799.4 2428.73 1812.45C2444.39 1824.2 2463.97 1830.72 2487.46 1830.72L2496.6 1829.42L2496.6 1719.79C2510.96 1719.79 2522.7 1723.7 2530.53 1730.23C2540.97 1736.75 2544.89 1748.5 2544.89 1764.16C2544.89 1773.3 2542.28 1782.43 2537.06 1788.96C2531.84 1796.79 2525.31 1800.7 2516.18 1802.01L2516.18 1828.11C2533.14 1824.2 2544.89 1816.37 2554.02 1804.62C2563.16 1794.18 2567.08 1778.52 2567.08 1761.55L2567.08 1761.55ZM2475.72 1803.32L2475.72 1803.32C2461.36 1803.32 2450.92 1799.4 2443.09 1792.88C2433.95 1786.35 2430.04 1775.91 2430.04 1762.86C2430.04 1749.8 2435.26 1738.06 2444.39 1730.23C2452.23 1725.01 2462.67 1721.09 2475.72 1719.79L2475.72 1803.32" fill-rule="evenodd" stroke="none" fill="#221e1f"/>
          <path d="M2563.16 1860.74L2355.65 1860.74L2355.65 1885.54L2563.16 1885.54L2563.16 1860.74" fill-rule="evenodd" stroke="none" fill="#221e1f"/>
          <path d="M2563.16 1979.51C2564.46 1970.37 2564.46 1965.15 2564.46 1959.93C2564.46 1949.49 2561.86 1941.66 2557.94 1936.44C2552.72 1932.52 2543.59 1929.91 2531.84 1929.91L2432.65 1929.91L2432.65 1909.03L2411.77 1909.03L2411.77 1929.91L2368.7 1929.91L2368.7 1956.02L2411.77 1956.02L2411.77 1979.51L2432.65 1979.51L2432.65 1956.02L2531.84 1956.02C2535.75 1956.02 2538.36 1957.32 2540.97 1959.93C2542.28 1962.54 2543.59 1966.46 2543.59 1970.37L2543.59 1979.51L2563.16 1979.51" fill-rule="evenodd" stroke="none" fill="#221e1f"/>
          <path d="M2546.19 3565.59L2394.8 3565.59L2394.8 3590.38L2416.98 3590.38L2416.98 3590.38L2409.15 3595.6C2397.41 3607.35 2390.88 3620.4 2390.88 3637.37C2390.88 3654.33 2394.8 3667.38 2403.93 3676.52C2413.07 3685.66 2426.12 3689.57 2443.09 3689.57L2546.19 3689.57L2546.19 3664.77L2450.92 3664.77C2437.87 3664.77 2428.73 3662.16 2422.21 3656.94C2416.98 3651.72 2413.07 3642.59 2413.07 3630.84C2413.07 3619.09 2418.29 3609.96 2427.43 3602.13C2436.56 3595.6 2449.61 3591.69 2465.27 3591.69L2546.19 3591.69L2546.19 3565.59" fill-rule="evenodd" stroke="none" fill="#221e1f"/>
          <path d="M2550.11 3766.57C2550.11 3752.22 2546.19 3740.47 2538.36 3731.34C2530.53 3722.2 2520.09 3718.29 2505.73 3718.29C2492.68 3718.29 2482.24 3722.2 2474.41 3730.03C2466.58 3739.16 2461.36 3750.91 2458.75 3766.57L2454.83 3800.51C2454.83 3803.12 2453.53 3807.03 2453.53 3809.64C2452.22 3812.25 2450.92 3814.86 2448.31 3816.17C2445.7 3818.78 2441.78 3818.78 2437.87 3818.78L2436.56 3818.78C2428.73 3818.78 2422.21 3816.17 2418.29 3809.64C2413.07 3804.42 2411.77 3795.29 2411.77 3784.84C2411.77 3774.4 2413.07 3765.27 2418.29 3760.05C2423.51 3753.52 2430.04 3750.91 2440.48 3749.61L2440.48 3726.11C2423.51 3727.42 2410.46 3732.64 2402.63 3743.08C2394.8 3753.52 2390.88 3769.18 2390.88 3788.76C2390.88 3807.03 2394.8 3821.39 2402.63 3830.52C2410.46 3839.66 2422.21 3844.88 2436.56 3844.88L2520.09 3844.88C2522.7 3844.88 2525.31 3846.18 2526.61 3847.49C2527.92 3848.8 2529.23 3851.41 2529.23 3854.02C2529.23 3854.02 2529.23 3855.32 2527.92 3856.63C2527.92 3857.93 2527.92 3859.24 2527.92 3861.85L2546.19 3861.85C2547.5 3859.24 2547.5 3856.63 2548.8 3854.02C2548.8 3851.41 2548.8 3848.8 2548.8 3846.18C2548.8 3837.05 2546.19 3830.52 2540.97 3825.3C2538.36 3822.69 2533.14 3821.39 2526.61 3820.08L2526.61 3820.08C2529.23 3817.47 2530.53 3816.17 2533.14 3813.56C2544.89 3800.51 2550.11 3784.84 2550.11 3766.57L2550.11 3766.57ZM2486.16 3818.78L2469.19 3818.78L2469.19 3818.78C2471.8 3814.86 2473.11 3809.64 2474.41 3803.12L2478.32 3780.93C2479.63 3767.88 2482.24 3758.74 2486.16 3753.52C2490.07 3748.3 2496.6 3744.39 2503.12 3744.39C2510.95 3744.39 2517.48 3747 2522.7 3752.22C2526.61 3756.13 2529.23 3762.66 2529.23 3771.79C2529.23 3784.84 2525.31 3796.59 2518.79 3805.73C2513.56 3812.25 2507.04 3816.17 2500.51 3817.47C2500.51 3818.78 2497.9 3818.78 2495.29 3818.78C2492.68 3818.78 2490.07 3818.78 2486.16 3818.78" fill-rule="evenodd" stroke="none" fill="#221e1f"/>
          <path d="M2546.19 3942.77C2547.5 3933.63 2547.5 3928.41 2547.5 3923.19C2547.5 3912.75 2544.89 3904.91 2540.97 3899.7C2535.75 3895.78 2526.61 3893.17 2514.87 3893.17L2415.68 3893.17L2415.68 3872.29L2394.8 3872.29L2394.8 3893.17L2351.73 3893.17L2351.73 3919.27L2394.8 3919.27L2394.8 3942.77L2415.68 3942.77L2415.68 3919.27L2514.87 3919.27C2518.79 3919.27 2521.39 3920.58 2524 3923.19C2525.31 3925.8 2526.61 3929.71 2526.61 3933.63L2526.61 3942.77L2546.19 3942.77" fill-rule="evenodd" stroke="none" fill="#221e1f"/>
          <path d="M2394.8 3994.97L2492.68 3994.97C2505.73 3994.97 2514.87 3997.58 2520.09 4001.5C2525.31 4006.71 2527.92 4014.55 2527.92 4026.29C2527.92 4038.04 2524 4047.17 2514.87 4055C2504.43 4061.53 2491.38 4065.45 2475.71 4065.45L2394.8 4065.45L2394.8 4091.55L2546.19 4091.55L2546.19 4066.75L2522.7 4066.75L2522.7 4066.75C2525.31 4065.45 2527.92 4062.84 2530.53 4061.53C2543.58 4051.09 2550.11 4036.73 2550.11 4021.07C2550.11 4002.8 2546.19 3989.75 2537.05 3981.92C2529.23 3972.78 2516.17 3968.87 2499.21 3968.87L2394.8 3968.87L2394.8 3994.97ZM2341.29 3993.66L2341.29 4019.77L2371.3 4019.77L2371.3 3993.66L2341.29 3993.66ZM2341.29 4040.65L2341.29 4066.75L2371.3 4066.75L2371.3 4040.65L2341.29 4040.65" fill-rule="evenodd" stroke="none" fill="#221e1f"/>
          <path d="M2546.19 4132.01L2394.8 4132.01L2394.8 4156.8L2420.9 4156.8L2420.9 4156.8C2416.98 4158.11 2413.07 4160.72 2409.15 4163.33C2397.41 4172.46 2390.88 4184.21 2390.88 4198.57C2390.88 4201.18 2390.88 4203.79 2392.19 4206.4L2416.98 4206.4L2416.98 4201.18C2416.98 4186.82 2422.21 4176.38 2430.04 4168.55C2437.87 4162.02 2449.61 4158.11 2465.27 4158.11L2546.19 4158.11L2546.19 4132.01" fill-rule="evenodd" stroke="none" fill="#221e1f"/>
          <path d="M2546.19 4225.98L2338.68 4225.98L2338.68 4250.77L2546.19 4250.77L2546.19 4225.98" fill-rule="evenodd" stroke="none" fill="#221e1f"/>
          <path d="M2546.19 4289.93L2394.8 4289.93L2394.8 4316.03L2546.19 4316.03L2546.19 4289.93ZM2338.68 4289.93L2338.68 4316.03L2367.39 4316.03L2367.39 4289.93L2338.68 4289.93" fill-rule="evenodd" stroke="none" fill="#221e1f"/>
          <path d="M2491.38 4472.64L2491.38 4472.64C2510.95 4470.03 2525.31 4463.51 2535.75 4451.76C2544.89 4441.32 2550.11 4426.96 2550.11 4408.69C2550.11 4389.11 2543.58 4372.15 2529.23 4360.4C2514.87 4348.66 2495.29 4343.44 2470.5 4343.44C2445.7 4343.44 2426.12 4348.66 2411.77 4361.71C2397.41 4373.45 2390.88 4390.42 2390.88 4411.3C2390.88 4429.57 2394.8 4443.93 2405.24 4455.68C2415.68 4466.12 2428.73 4471.34 2445.7 4472.64L2445.7 4447.84C2435.26 4446.54 2427.43 4442.63 2420.9 4436.1C2415.68 4429.57 2411.77 4421.74 2411.77 4411.3C2411.77 4398.25 2416.98 4387.81 2427.43 4379.98C2437.87 4373.45 2452.22 4369.54 2470.5 4369.54C2490.07 4369.54 2504.43 4373.45 2513.56 4379.98C2524 4386.5 2527.92 4396.95 2527.92 4410C2527.92 4420.44 2525.31 4428.27 2518.79 4434.79C2512.26 4441.32 2503.12 4446.54 2491.38 4447.84L2491.38 4472.64" fill-rule="evenodd" stroke="none" fill="#221e1f"/>
          <path d="M2546.19 4497.44L2338.68 4497.44L2338.68 4523.54L2415.68 4523.54L2415.68 4523.54L2409.15 4527.46C2397.41 4539.2 2390.88 4552.25 2390.88 4569.22C2390.88 4586.19 2394.8 4599.24 2403.93 4608.38C2413.07 4617.51 2426.12 4621.43 2443.09 4621.43L2546.19 4621.43L2546.19 4596.63L2448.31 4596.63C2436.56 4596.63 2427.43 4594.02 2422.21 4588.8C2415.68 4583.58 2413.07 4575.75 2413.07 4565.3C2413.07 4552.25 2418.29 4541.81 2427.43 4535.29C2436.56 4527.46 2449.61 4523.54 2465.27 4523.54L2546.19 4523.54L2546.19 4497.44" fill-rule="evenodd" stroke="none" fill="#221e1f"/>
          <path d="M3739.23 2153.25L3587.84 2153.25L3587.84 2178.05L3613.95 2178.05L3613.95 2178.05C3610.03 2179.35 3606.11 2181.96 3602.2 2184.57C3590.45 2193.71 3583.93 2205.45 3583.93 2219.81C3583.93 2222.42 3583.93 2225.03 3585.23 2227.64L3610.03 2227.64L3610.03 2222.42C3610.03 2208.07 3615.25 2197.63 3623.08 2189.79C3630.91 2183.27 3642.66 2179.35 3658.32 2179.35L3739.23 2179.35L3739.23 2153.25" fill-rule="evenodd" stroke="none" fill="#221e1f"/>
          <path d="M3743.15 2308.56C3743.15 2286.37 3736.63 2269.41 3723.57 2257.66C3709.22 2245.91 3690.95 2239.39 3666.15 2239.39C3641.35 2239.39 3620.47 2245.91 3606.11 2258.96C3590.45 2272.02 3583.93 2288.98 3583.93 2311.17C3583.93 2330.75 3590.45 2346.41 3604.81 2359.46C3620.47 2371.2 3640.05 2377.73 3663.54 2377.73L3672.68 2376.43L3672.68 2266.8C3687.03 2266.8 3698.78 2270.71 3706.61 2277.23C3717.05 2283.76 3720.96 2295.51 3720.96 2311.17C3720.96 2320.3 3718.35 2329.44 3713.13 2335.96C3707.91 2343.8 3701.39 2347.71 3692.25 2349.02L3692.25 2375.12C3709.22 2371.2 3720.96 2363.38 3730.1 2351.63C3739.23 2341.19 3743.15 2325.53 3743.15 2308.56L3743.15 2308.56ZM3651.79 2350.32L3651.79 2350.32C3637.44 2350.32 3627 2346.41 3619.16 2339.88C3610.03 2333.36 3606.11 2322.91 3606.11 2309.86C3606.11 2296.81 3611.33 2285.07 3620.47 2277.23C3628.3 2272.02 3638.74 2268.1 3651.79 2266.8L3651.79 2350.32" fill-rule="evenodd" stroke="none" fill="#221e1f"/>
          <path d="M3739.23 2407.75L3587.84 2407.75L3587.84 2433.85L3739.23 2433.85L3739.23 2407.75ZM3531.72 2407.75L3531.72 2433.85L3560.43 2433.85L3560.43 2407.75L3531.72 2407.75" fill-rule="evenodd" stroke="none" fill="#221e1f"/>
          <path d="M3684.42 2590.46L3684.42 2590.46C3704 2587.86 3718.35 2581.33 3728.79 2569.58C3737.93 2559.14 3743.15 2544.79 3743.15 2526.52C3743.15 2506.94 3736.63 2489.97 3722.27 2478.22C3707.91 2466.48 3688.34 2461.26 3663.54 2461.26C3638.74 2461.26 3619.16 2466.48 3604.81 2479.53C3590.45 2491.28 3583.93 2508.24 3583.93 2529.13C3583.93 2547.39 3587.84 2561.75 3598.28 2573.5C3608.72 2583.94 3621.77 2589.16 3638.74 2590.46L3638.74 2565.67C3628.3 2564.36 3620.47 2560.45 3613.95 2553.92C3608.72 2547.39 3604.81 2539.57 3604.81 2529.13C3604.81 2516.07 3610.03 2505.63 3620.47 2497.8C3630.91 2491.28 3645.27 2487.36 3663.54 2487.36C3683.12 2487.36 3697.47 2491.28 3706.61 2497.8C3717.05 2504.33 3720.96 2514.77 3720.96 2527.82C3720.96 2538.26 3718.35 2546.09 3711.83 2552.62C3705.3 2559.14 3696.17 2564.36 3684.42 2565.67L3684.42 2590.46" fill-rule="evenodd" stroke="none" fill="#221e1f"/>
          <path d="M3739.23 2615.26L3531.72 2615.26L3531.72 2641.36L3608.72 2641.36L3608.72 2641.36L3602.2 2645.28C3590.45 2657.03 3583.93 2670.08 3583.93 2687.04C3583.93 2704.01 3587.84 2717.06 3596.98 2726.2C3606.11 2735.33 3619.16 2739.25 3636.13 2739.25L3739.23 2739.25L3739.23 2714.45L3641.35 2714.45C3629.61 2714.45 3620.47 2711.84 3615.25 2706.62C3608.72 2701.4 3606.11 2693.57 3606.11 2683.13C3606.11 2670.08 3611.33 2659.64 3620.47 2653.11C3629.61 2645.28 3642.66 2641.36 3658.32 2641.36L3739.23 2641.36L3739.23 2615.26" fill-rule="evenodd" stroke="none" fill="#221e1f"/>
          <path d="M3739.23 2775.79L3531.72 2775.79L3531.72 2801.89L3608.72 2801.89L3608.72 2801.89L3602.2 2805.81C3590.45 2817.55 3583.93 2830.61 3583.93 2847.57C3583.93 2864.54 3587.84 2877.59 3596.98 2886.73C3606.11 2895.86 3619.16 2899.78 3636.13 2899.78L3739.23 2899.78L3739.23 2874.98L3641.35 2874.98C3629.61 2874.98 3620.47 2872.37 3615.25 2867.15C3608.72 2861.93 3606.11 2854.1 3606.11 2843.66C3606.11 2830.61 3611.33 2820.16 3620.47 2813.64C3629.61 2805.81 3642.66 2801.89 3658.32 2801.89L3739.23 2801.89L3739.23 2775.79" fill-rule="evenodd" stroke="none" fill="#221e1f"/>
          <path d="M3743.15 2976.78C3743.15 2962.42 3739.23 2950.68 3731.41 2941.54C3723.57 2932.41 3713.13 2928.49 3698.78 2928.49C3685.73 2928.49 3675.29 2932.41 3667.45 2940.24C3659.63 2949.37 3654.4 2961.12 3651.79 2976.78L3647.88 3010.71C3647.88 3013.32 3646.57 3017.24 3646.57 3019.85C3645.27 3022.46 3643.96 3025.07 3641.35 3026.38C3638.74 3028.98 3634.82 3028.98 3630.91 3028.98L3629.61 3028.98C3621.77 3028.98 3615.25 3026.38 3611.33 3019.85C3606.11 3014.63 3604.81 3005.49 3604.81 2995.05C3604.81 2984.61 3606.11 2975.48 3611.33 2970.25C3616.55 2963.73 3623.08 2961.12 3633.52 2959.81L3633.52 2936.32C3616.55 2937.63 3603.5 2942.85 3595.67 2953.29C3587.84 2963.73 3583.93 2979.39 3583.93 2998.97C3583.93 3017.24 3587.84 3031.59 3595.67 3040.73C3603.5 3049.87 3615.25 3055.09 3629.61 3055.09L3713.13 3055.09C3715.74 3055.09 3718.35 3056.39 3719.66 3057.7C3720.96 3059 3722.27 3061.61 3722.27 3064.22C3722.27 3064.22 3722.27 3065.53 3720.96 3066.83C3720.96 3068.14 3720.96 3069.44 3720.96 3072.05L3739.23 3072.05C3740.54 3069.44 3740.54 3066.83 3741.84 3064.22C3741.84 3061.61 3741.84 3059 3741.84 3056.39C3741.84 3047.26 3739.23 3040.73 3734.02 3035.51C3731.41 3032.9 3726.18 3031.59 3719.66 3030.29L3719.66 3030.29C3722.27 3027.68 3723.57 3026.38 3726.18 3023.77C3737.93 3010.71 3743.15 2995.05 3743.15 2976.78L3743.15 2976.78ZM3679.2 3028.98L3662.23 3028.98L3662.23 3028.98C3664.84 3025.07 3666.15 3019.85 3667.45 3013.32L3671.37 2991.14C3672.68 2978.09 3675.29 2968.95 3679.2 2963.73C3683.12 2958.51 3689.64 2954.59 3696.17 2954.59C3704 2954.59 3710.52 2957.2 3715.74 2962.42C3719.66 2966.34 3722.27 2972.86 3722.27 2982C3722.27 2995.05 3718.35 3006.8 3711.83 3015.93C3706.61 3022.46 3700.08 3026.38 3693.55 3027.68C3693.55 3028.98 3690.95 3028.98 3688.34 3028.98C3685.73 3028.98 3683.12 3028.98 3679.2 3028.98" fill-rule="evenodd" stroke="none" fill="#221e1f"/>
          <path d="M3739.23 3098.16L3531.72 3098.16L3531.72 3122.95L3739.23 3122.95L3739.23 3098.16" fill-rule="evenodd" stroke="none" fill="#221e1f"/>
          <path d="M3739.23 3216.92C3740.54 3207.79 3740.54 3202.57 3740.54 3197.34C3740.54 3186.9 3737.93 3179.07 3734.02 3173.85C3728.79 3169.94 3719.66 3167.33 3707.91 3167.33L3608.72 3167.33L3608.72 3146.45L3587.84 3146.45L3587.84 3167.33L3544.77 3167.33L3544.77 3193.43L3587.84 3193.43L3587.84 3216.92L3608.72 3216.92L3608.72 3193.43L3707.91 3193.43C3711.83 3193.43 3714.44 3194.73 3717.05 3197.34C3718.35 3199.96 3719.66 3203.87 3719.66 3207.79L3719.66 3216.92L3739.23 3216.92" fill-rule="evenodd" stroke="none" fill="#221e1f"/>
          <path d="M3739.23 3243.02L3587.84 3243.02L3587.84 3269.13L3739.23 3269.13L3739.23 3243.02ZM3531.72 3243.02L3531.72 3269.13L3560.43 3269.13L3560.43 3243.02L3531.72 3243.02" fill-rule="evenodd" stroke="none" fill="#221e1f"/>
          <path d="M3782.3 3361.79C3782.3 3376.14 3777.08 3387.89 3767.95 3394.42C3758.81 3402.25 3745.76 3406.16 3727.49 3406.16L3723.57 3406.16L3723.57 3406.16C3736.63 3395.72 3743.15 3382.67 3743.15 3365.71C3743.15 3344.82 3735.32 3329.16 3720.96 3317.41C3705.3 3305.67 3684.42 3299.14 3659.63 3299.14C3636.13 3299.14 3617.86 3304.36 3604.81 3316.11C3590.45 3327.86 3583.93 3343.52 3583.93 3363.09C3583.93 3381.37 3591.76 3395.72 3607.42 3406.16L3610.03 3407.47L3587.84 3407.47L3587.84 3432.27L3727.49 3432.27C3753.59 3432.27 3773.17 3425.74 3784.91 3415.3C3796.66 3403.55 3803.19 3385.28 3803.19 3361.79C3803.19 3344.82 3799.27 3331.77 3791.44 3321.33C3783.61 3310.89 3771.86 3304.36 3756.2 3303.06L3756.2 3329.16C3765.34 3330.47 3770.56 3334.38 3775.78 3339.6C3779.7 3344.82 3782.3 3352.65 3782.3 3361.79L3782.3 3361.79ZM3606.11 3367.01C3606.11 3352.65 3611.33 3342.21 3620.47 3335.69C3629.61 3329.16 3643.96 3325.25 3663.54 3325.25C3681.81 3325.25 3696.17 3329.16 3706.61 3335.69C3715.74 3343.52 3720.96 3353.96 3720.96 3367.01C3720.96 3378.76 3717.05 3389.2 3707.91 3397.03C3698.78 3403.55 3685.73 3407.47 3671.37 3407.47C3649.18 3407.47 3633.52 3404.86 3623.08 3397.03C3611.33 3390.5 3606.11 3380.06 3606.11 3367.01" fill-rule="evenodd" stroke="none" fill="#221e1f"/>
          <path d="M3756.2 4844.78L3604.81 4844.78L3604.81 4869.58L3627 4869.58L3627 4869.58L3620.47 4874.8C3607.42 4886.54 3600.89 4899.59 3600.89 4915.25C3600.89 4929.61 3604.81 4940.05 3612.64 4947.88C3615.25 4951.8 3620.47 4954.41 3624.39 4957.02L3624.39 4957.02L3619.17 4960.93C3606.12 4971.38 3600.89 4984.43 3600.89 5000.09C3600.89 5015.75 3604.81 5027.5 3612.64 5036.63C3621.78 5044.46 3633.52 5049.68 3650.49 5049.68L3756.2 5049.68L3756.2 5023.58L3658.32 5023.58C3646.57 5023.58 3638.75 5020.97 3632.22 5017.05C3627 5011.84 3623.08 5005.31 3623.08 4996.17C3623.08 4985.73 3628.3 4976.6 3636.13 4970.07C3645.27 4963.54 3657.02 4959.63 3671.37 4959.63L3756.2 4959.63L3756.2 4934.83L3653.1 4934.83C3642.66 4934.83 3636.13 4932.22 3630.91 4928.3C3625.69 4924.39 3623.08 4917.87 3623.08 4910.04C3623.08 4898.29 3628.3 4889.15 3637.44 4881.32C3647.88 4874.8 3659.63 4870.88 3675.29 4870.88L3756.2 4870.88L3756.2 4844.78" fill-rule="evenodd" stroke="none" fill="#221e1f"/>
          <path d="M3760.12 5126.68C3760.12 5112.33 3756.2 5100.58 3748.38 5091.45C3740.54 5082.31 3730.1 5078.39 3715.75 5078.39C3702.7 5078.39 3692.25 5082.31 3684.42 5090.14C3676.59 5099.28 3671.37 5111.02 3668.76 5126.68L3664.85 5160.62C3664.85 5163.23 3663.54 5167.14 3663.54 5169.75C3662.23 5172.36 3660.93 5174.97 3658.32 5176.28C3655.71 5178.89 3651.8 5178.89 3647.88 5178.89L3646.57 5178.89C3638.75 5178.89 3632.22 5176.28 3628.3 5169.75C3623.08 5164.53 3621.78 5155.4 3621.78 5144.96C3621.78 5134.52 3623.08 5125.38 3628.3 5120.16C3633.52 5113.63 3640.05 5111.02 3650.49 5109.72L3650.49 5086.23C3633.52 5087.53 3620.47 5092.75 3612.64 5103.19C3604.81 5113.63 3600.89 5129.29 3600.89 5148.87C3600.89 5167.14 3604.81 5181.5 3612.64 5190.64C3620.47 5199.77 3632.22 5204.99 3646.57 5204.99L3730.1 5204.99C3732.71 5204.99 3735.32 5206.3 3736.63 5207.6C3737.93 5208.91 3739.24 5211.52 3739.24 5214.13C3739.24 5214.13 3739.24 5215.43 3737.93 5216.74C3737.93 5218.04 3737.93 5219.35 3737.93 5221.96L3756.2 5221.96C3757.51 5219.35 3757.51 5216.74 3758.82 5214.13C3758.82 5211.52 3758.82 5208.91 3758.82 5206.3C3758.82 5197.16 3756.2 5190.64 3750.98 5185.41C3748.38 5182.8 3743.15 5181.5 3736.63 5180.2L3736.63 5180.2C3739.24 5177.59 3740.54 5176.28 3743.15 5173.67C3754.9 5160.62 3760.12 5144.96 3760.12 5126.68L3760.12 5126.68ZM3696.17 5178.89L3679.2 5178.89L3679.2 5178.89C3681.81 5174.97 3683.12 5169.75 3684.42 5163.23L3688.34 5141.04C3689.64 5127.99 3692.25 5118.86 3696.17 5113.63C3700.09 5108.41 3706.61 5104.5 3713.14 5104.5C3720.96 5104.5 3727.49 5107.11 3732.71 5112.33C3736.63 5116.24 3739.24 5122.77 3739.24 5131.91C3739.24 5144.96 3735.32 5156.7 3728.8 5165.84C3723.58 5172.36 3717.05 5176.28 3710.53 5177.59C3710.53 5178.89 3707.91 5178.89 3705.3 5178.89C3702.7 5178.89 3700.09 5178.89 3696.17 5178.89" fill-rule="evenodd" stroke="none" fill="#221e1f"/>
          <path d="M3799.27 5302.88C3799.27 5317.23 3794.05 5328.98 3784.92 5335.5C3775.78 5343.34 3762.73 5347.25 3744.46 5347.25L3740.54 5347.25L3740.54 5347.25C3753.59 5336.81 3760.12 5323.76 3760.12 5306.79C3760.12 5285.91 3752.29 5270.25 3737.93 5258.5C3722.27 5246.75 3701.39 5240.23 3676.59 5240.23C3653.1 5240.23 3634.83 5245.45 3621.78 5257.2C3607.42 5268.94 3600.89 5284.61 3600.89 5304.18C3600.89 5322.45 3608.73 5336.81 3624.39 5347.25L3627 5348.55L3604.81 5348.55L3604.81 5373.35L3744.46 5373.35C3770.56 5373.35 3790.14 5366.83 3801.88 5356.39C3813.63 5344.64 3820.16 5326.37 3820.16 5302.88C3820.16 5285.91 3816.24 5272.86 3808.41 5262.42C3800.58 5251.98 3788.83 5245.45 3773.17 5244.14L3773.17 5270.25C3782.31 5271.55 3787.53 5275.47 3792.75 5280.69C3796.66 5285.91 3799.27 5293.74 3799.27 5302.88L3799.27 5302.88ZM3623.08 5308.1C3623.08 5293.74 3628.3 5283.3 3637.44 5276.77C3646.57 5270.25 3660.93 5266.33 3680.51 5266.33C3698.78 5266.33 3713.14 5270.25 3723.58 5276.77C3732.71 5284.61 3737.93 5295.04 3737.93 5308.1C3737.93 5319.84 3734.02 5330.28 3724.88 5338.11C3715.75 5344.64 3702.7 5348.55 3688.34 5348.55C3666.15 5348.55 3650.49 5345.95 3640.05 5338.11C3628.3 5331.59 3623.08 5321.15 3623.08 5308.1" fill-rule="evenodd" stroke="none" fill="#221e1f"/>
          <path d="M3760.12 5469.93C3760.12 5447.74 3753.59 5430.78 3740.54 5419.03C3726.19 5407.29 3707.91 5400.76 3683.12 5400.76C3658.32 5400.76 3637.44 5407.29 3623.08 5420.34C3607.42 5433.39 3600.89 5450.36 3600.89 5472.54C3600.89 5492.12 3607.42 5507.78 3621.78 5520.83C3637.44 5532.58 3657.02 5539.1 3680.51 5539.1L3689.64 5537.8L3689.64 5428.17C3704 5428.17 3715.75 5432.08 3723.58 5438.61C3734.02 5445.13 3737.93 5456.88 3737.93 5472.54C3737.93 5481.68 3735.32 5490.81 3730.1 5497.34C3724.88 5505.17 3718.36 5509.09 3709.22 5510.39L3709.22 5536.49C3726.19 5532.58 3737.93 5524.75 3747.07 5513C3756.2 5502.56 3760.12 5486.9 3760.12 5469.93L3760.12 5469.93ZM3668.76 5511.7L3668.76 5511.7C3654.41 5511.7 3643.96 5507.78 3636.13 5501.25C3627 5494.73 3623.08 5484.29 3623.08 5471.23C3623.08 5458.18 3628.3 5446.44 3637.44 5438.61C3645.27 5433.39 3655.71 5429.47 3668.76 5428.17L3668.76 5511.7" fill-rule="evenodd" stroke="none" fill="#221e1f"/>
          <path d="M3756.2 5571.73L3604.81 5571.73L3604.81 5596.53L3630.91 5596.53L3630.91 5596.53C3627 5597.83 3623.08 5600.44 3619.17 5603.05C3607.42 5612.19 3600.89 5623.93 3600.89 5638.29C3600.89 5640.9 3600.89 5643.51 3602.2 5646.12L3627 5646.12L3627 5640.9C3627 5626.55 3632.22 5616.11 3640.05 5608.27C3647.88 5601.75 3659.63 5597.83 3675.29 5597.83L3756.2 5597.83L3756.2 5571.73" fill-rule="evenodd" stroke="none" fill="#221e1f"/>
        </g>
      </g>
    </g>
  </g>
</svg>
